# xmcd CD database file
#
# Track frame offsets:
#	150
#	16617
#	32355
#	46736
#	60984
#	81146
#	102536
#	118194
#	134567
#	150941
#	169345
#	189621
#	206074
#	222340
#	239444
#
# Disc length: 3366 seconds
#
# Revision: 0
# Processed by: cddbd v1.5.2PL0 Copyright (c) Steve Scherf et al.
# Submitted via: CDex 1.70beta2
#
DISCID=c60d240f
DTITLE=James Sampson - The Best of me - Past and Present
DYEAR=2007
DGENRE=Jazz
TTITLE0=Dream On
TTITLE1=First to let you know
TTITLE2=Follow your heartbest
TTITLE3=Me and and Mrs. Jones
TTITLE4=It takes two
TTITLE5=Let's stay together
TTITLE6=Slow down
TTITLE7=Here we go
TTITLE8=Holiday
TTITLE9=On the wings of ove
TTITLE10=Don't give up
TTITLE11=Deeper Love
TTITLE12=Going for the Gold
TTITLE13=That you love mve
TTITLE14=Say you love me
EXTD=YEAR: 2007
EXTT0=
EXTT1=
EXTT2=
EXTT3=
EXTT4=
EXTT5=
EXTT6=
EXTT7=
EXTT8=
EXTT9=
EXTT10=
EXTT11=
EXTT12=
EXTT13=
EXTT14=
PLAYORDER=
